<svg width="13" height="12" viewBox="0 0 13 12" fill="none" xmlns="http://www.w3.org/2000/svg">
<path d="M12.1422 4.4149H8.05654L6.81561 0.709793C6.78375 0.623525 6.72622 0.549094 6.65076 0.496524C6.57531 0.443954 6.48555 0.415771 6.39359 0.415771C6.30163 0.415771 6.21187 0.443954 6.13642 0.496524C6.06096 0.549094 6.00343 0.623525 5.97157 0.709793L4.72996 4.4149H0.61438C0.496614 4.41526 0.383775 4.4622 0.300502 4.54548C0.217229 4.62875 0.170288 4.74159 0.16993 4.85935C0.169757 4.8845 0.172493 4.90959 0.178084 4.93411C0.183972 4.99695 0.203727 5.05771 0.235926 5.112C0.268126 5.1663 0.311967 5.21277 0.364292 5.24808L3.72213 7.6144L2.43567 11.3603C2.40522 11.4491 2.40361 11.5453 2.43107 11.6352C2.45853 11.725 2.51365 11.8038 2.58858 11.8605C2.65801 11.9227 2.74579 11.9606 2.83867 11.9685C2.93876 11.9615 3.03496 11.9269 3.11662 11.8686L6.39087 9.53287L9.66784 11.8686C9.7489 11.9281 9.84544 11.9627 9.94579 11.9685C10.0396 11.9629 10.1284 11.9244 10.1966 11.8598C10.2722 11.8037 10.3278 11.7249 10.3553 11.6349C10.3828 11.5448 10.3808 11.4484 10.3495 11.3596L9.05825 7.61304L12.3882 5.22497L12.4691 5.15701C12.5517 5.0789 12.603 4.97328 12.6132 4.86003C12.6067 4.7396 12.5543 4.62625 12.4666 4.5434C12.379 4.46056 12.2628 4.41456 12.1422 4.4149Z" fill="#FFD12F"/>
</svg>
